/* XPM */
static char *collect[] = {
/* columns rows colors chars-per-pixel */
"64 64 221 2 ",
"   c #9BACAA",
".  c #A1A9A3",
"X  c #89928C",
"o  c #93968B",
"O  c #7E9154",
"+  c #536265",
"@  c #4E595A",
"#  c #405638",
"$  c black",
"%  c #28221F",
"&  c #383F40",
"*  c #888D82",
"=  c #869A9C",
"-  c #62797E",
";  c #616257",
":  c #5A7B48",
">  c #5B6F73",
",  c #206134",
"<  c #377B36",
"1  c #4E9129",
"2  c #65A117",
"3  c #3D620E",
"4  c #347333",
"5  c #7C9193",
"6  c #1B1715",
"7  c #184A28",
"8  c #020202",
"9  c #2C3739",
"0  c #566A6E",
"q  c #4C5758",
"w  c #030202",
"e  c #90792A",
"r  c #4C3E15",
"t  c #313821",
"y  c #506266",
"u  c #2E3638",
"i  c #423612",
"p  c #FFD145",
"a  c #C8A436",
"s  c #5C4B19",
"d  c #1B2021",
"f  c #3E494B",
"g  c #080B07",
"h  c #8C6412",
"j  c #E3AE2D",
"k  c #F9CA40",
"l  c #EFBC37",
"z  c #AC7914",
"x  c #563D0A",
"c  c #010000",
"v  c #161A1B",
"b  c #4A575A",
"n  c #2D3D28",
"m  c #292212",
"M  c #CB8F18",
"N  c #E0AA2A",
"B  c #BC8B1F",
"V  c #B98216",
"C  c #5F3D0A",
"Z  c #0C0601",
"A  c #0E1111",
"S  c #151818",
"D  c #2F2106",
"F  c #A06C12",
"G  c #996C12",
"H  c #4D3609",
"J  c #C98E18",
"K  c #B86910",
"L  c #AE5D0E",
"P  c #3E2F1E",
"I  c #444D4E",
"U  c #485558",
"Y  c #99510C",
"T  c #B76710",
"R  c #402907",
"E  c #62450C",
"W  c #C48115",
"Q  c #B35F0E",
"!  c #9F550C",
"~  c #516367",
"^  c #252B2D",
"/  c #422305",
"(  c #924E0B",
")  c #AD6D11",
"_  c #CA8D17",
"`  c #BA6D11",
"'  c #542D07",
"]  c #1D2223",
"[  c #526063",
"{  c #8E4B0B",
"}  c #965D0F",
"|  c #2D2005",
" . c #4B2806",
".. c #8C4B0B",
"X. c #532C06",
"o. c #98510C",
"O. c #080401",
"+. c #465558",
"@. c #003C75",
"#. c #2A2925",
"$. c #6C3908",
"%. c #B6650F",
"&. c #AD600E",
"*. c #3E2105",
"=. c #272E2F",
"-. c #323B3D",
";. c #22282A",
":. c #005A97",
">. c #00749C",
",. c #0B0908",
"<. c #6C3C09",
"1. c #C07913",
"2. c #C07C14",
"3. c #954F0C",
"4. c #3B4344",
"5. c #0A0601",
"6. c #AC5B0D",
"7. c #301A04",
"8. c #552D07",
"9. c #47290B",
"0. c #222829",
"q. c #131516",
"w. c #61440B",
"e. c #C48015",
"r. c #834D0C",
"t. c #090A0B",
"y. c #2E3435",
"u. c #475456",
"i. c #40494A",
"p. c #B78116",
"a. c #3A2907",
"s. c #2C3335",
"d. c #16191A",
"f. c #543B0A",
"g. c #9D6E13",
"h. c #030402",
"j. c #3D5235",
"k. c #323839",
"l. c #AA7814",
"z. c #473208",
"x. c #13100E",
"c. c #232817",
"v. c #13160D",
"b. c #77888A",
"n. c #3F4B4D",
"m. c #24311D",
"M. c #1C2122",
"N. c #504216",
"B. c #3E3311",
"V. c #445053",
"C. c #587846",
"Z. c #25331E",
"A. c #E4BB3E",
"S. c #C69220",
"D. c #2E302C",
"F. c #2D3537",
"G. c #4B673C",
"H. c #363C38",
"J. c #856D24",
"K. c #E8B938",
"L. c #C48A17",
"P. c #0B0801",
"I. c #5F6E40",
"U. c #3A4547",
"Y. c #1F2B19",
"T. c #404C4E",
"R. c #0F150C",
"E. c #865F10",
"W. c #6E4D0D",
"Q. c #0F1111",
"!. c #171C1D",
"~. c #1F1503",
"^. c #181103",
"/. c #272C2C",
"(. c #0C0A03",
"). c #D7B03A",
"_. c #766120",
"`. c #090701",
"'. c #683708",
"]. c #B86A10",
"[. c #764C0C",
"{. c #0C0D0D",
"}. c #5E4D19",
"|. c #F0BE38",
" X c #C08817",
".X c #73500D",
"XX c #B6640F",
"oX c #211103",
"OX c #232828",
"+X c #4A585A",
"@X c #4D3F15",
"#X c #9E761B",
"$X c #81520D",
"%X c #0B0D0D",
"&X c #252C2D",
"*X c #020303",
"=X c #352406",
"-X c #BF7D14",
";X c #322306",
":X c #243120",
">X c #4D5B5E",
",X c #0F1213",
"<X c #512B06",
"1X c #864C0C",
"2X c #060707",
"3X c #526164",
"4X c #4D5E61",
"5X c #432305",
"6X c #98500C",
"7X c #381E04",
"8X c #2A3133",
"9X c #374A30",
"0X c #151C12",
"qX c #010202",
"wX c #485253",
"eX c #3F7621",
"rX c #202627",
"tX c #222728",
"yX c #588D14",
"uX c #0E2C17",
"iX c #447E24",
/* pixels */
"  . X o o O O O O O O O + @ # $ $ % % & % & & @ * * O O + @ # %   . X o o O O O O O O O + @ # $   = = = - - - ; ; * O O + @ # $ ",
"= : + + + O : : + + + : : + @ % = * * * O O * * : + + + @ + @ % = : + + + O : : + + + : : + @ % o : + + + + O - + + + + @ + @ % ",
"- + + + O : + + + + : : + + + & = : + + + O : : + + + + + @ + & - + + + O : + + + + : : + + + & : + + + : O + + + + + + + @ + & ",
"- + + - + + : + : : : + + + # % = + + + O : + + + + + + + + + % - + + - + + : + : : : + + + # % O + + - - + + + + + + + + + + % ",
"- + : - + : + : : + + + + + # & - + + - + + + + + + + + + + @ % - + : - + : + : : + + + + + # & O + O + + + + + + + + + + + @ % ",
"- + O + + + : + + + + + + # + & - + : - + : + + + + + + > # & % - + O + + + : + + + + + + # + & O O : + + + + + + + + + > # & % ",
"- O + + + : + + + + @ + @ + + & - O : + : + : + + + + > # # & & - O + + + : + + + + @ + @ + + & - O : + : + : + + + + > # # & & ",
"; - + + + + + + + + # + + + + & * O : : + : + + + + > > # # & % ; - + + + + + + + + # + + + + & * O : : + : + + + + > > # # & % ",
"; + + + + + + + + # # + + + + & * O : + : : + + + > # # @ # & & ; + + + + + + + + # # + + + + & * O : + : : + + + > # # @ # & & ",
"# + + + + + + + > # @ + @ + + & O : + + + + + @ + # @ + + @ # & # + + + + + + + > # @ + @ + + & O : + + + + + @ + # @ + + @ # & ",
"# # + + + + + > # @ + @ + + + & : + + + + + @ + @ @ + + + + # & # # + + + + + > # @ + @ + + + & : + + + + + @ + @ @ + + + + # & ",
"# # + + + + > # @ + @ + @ + + & + + + + + @ + @ + + + + + + + & # # + + + + > # @ + @ + @ + + & + + + + + @ + @ + + + + + + + & ",
"# @ + + + > # @ + @ + + + + + % + + + + @ + @ + + + + + + + + % # @ + + + > # @ + @ + + + + + % + + + + @ + @ + + + + + + + + % ",
"@ + + > # # # + + + + + + + @ % @ + + + + + + + + + + + + + @ % @ + + > # # # + + + + + + + @ % @ + + + + + + + + + + + + + @ % ",
"@ # # # # # @ + + # # @ + + # $ @ # # # + + & + + # # @ + , # < , 1 # # # # @ + + # # @ + + # % @ # # # + + + + + # # @ + + # $ ",
"$ % % % & % & & & & & % & % $ $ % % % % & % , & < , & % & 1 2 , 1 2 3 4 & % & & & & & % & % % $ $ % % % & % & & & & & % & % $ $ ",
"  o : O O O O O O O O O + @ # % 5 * : O O : % 2 , % # - - # & 6 7 6 $ 8 9 0 - ; ; # # # # @ @ $ 5 5 - - - # & # # @ @ @ # # # $ ",
"= : + + + O : : + + + : : + @ % 5 : + + - : < 1 1 2 & : : + q w $ e r $ $ $ t y + + # # @ @ + % * : + + + + # & @ + + + + @ # % ",
"= + + + O : + + + + : : + + + & - + + - : + # < 1 < , : + + u $ i p p a s $ $ $ d f + + @ + @ % : + + - + + @ # + + + + @ + @ % ",
"= + + - + + + + : : : + : + # % - + - + + : + 2 < , # + + + g $ h j k p l z x c $ $ v b + @ @ % O + - + + + + # + + + + + @ + % ",
"- + : - + + + : : : + : + + # & - + + + + + + , # - - + + + n m M M M N B M M V C Z A + @ + @ & O - : + + + @ + # + + + + + @ & ",
"- + O + + + + + : + : + + # + & # + + + + + + + + + - + + + + S D F M G $ H J M K L P I + @ # % : : + : + + + @ # + + + + + + % ",
"- O + + + + + : + + + + @ + + & & # @ + @ + + + + @ + + + + U $ $ Y T R $ E M W Q ! $ $ ~ # # & # + : + + + + + # + @ + + + + & ",
"; - + + + + + + + + + + + + + & # & # # + @ + @ @ + @ + + + ^ $ / Q ( $ $ ) _ ` Q ' $ ] > # + % % : : + + + + @ @ # + + + + + & ",
"; + + + + + + + + + + + + + @ & # @ + + # # # @ + + + + + [ ] $ { Q } |  .Q ..X.o.O.$ +.# @ # % @.& & @ + + + @ + + @ + + + > & ",
"# + + + + + + + + + + + + @ @ & @ + + + + + + # + + + + + + + #.$.%.M M &.Q *.$ =.-.;.> # # + % :.:.>.>.@ + @ + + + + + + > # & ",
"# # + + + + + + + + + @ # # # & @ + + + + + @ + @ + + > + + + ,.$ <.1.2.Q 3.$ $ b + + @ # + # & :.  5 - - - + @ + + + > > @ # & ",
"# # + + + @ + + > > @ # + @ + & @ + + + + + + + + + > @ @ + 4.$ 5.6.Q 7.8.9.$ 0.+ + @ # + # + % 5 : : + + + + + + + > @ @ + @ % ",
"# @ @ + @ + > > # # # + @ + @ % # + @ + + + + + + + > @ + + q.$ w.e.r.$ t.+ y.u.+ + # + @ 2 @ , - : + + + + + + + + + @ + @ @ & ",
"@ @ + @ + @ # # @ # + # + @ @ % # @ + @ + + + + + > @ + @ i.$ $ p.M a.$ s.# + + + @ # @ + 2 < 2 @ , + + + + + + + + + + + @ & % ",
"@ + @ @ @ # # + # + # + @ + # % # # @ + @ + + + > # # @ @ d.$ f.M g.$ h.j.+ + + @ @ # + @ @ 1 , 2 % + # # 2 + + + + + @ & % % $ ",
"% % % % & % & & & & & % & % % $ % % % % & % & & & & k.% k.$ $ l.M z.$ x.& & & & & & & % , 1 , 1 2 , 1 < 1 , < % & & % % $ % $ $ ",
"  . X o o O O O O O O O + @ # %   o : O O O O O O O c.v.v $ z.M l.$ $ b.- - - * * O : + 1 # % % < 1 % < , % & @ * * O O + @ # $ ",
"= : + + + O : : + + + : : + @ % = : + + + O : : + n.$ $ $ $ g.M f.$ m.+ + + O O O : + + + + # $ 2 , * * O O * * : + + + @ + @ % ",
"- + + + O : + + + + : : + + + & = + + + O : + + + M.$ N.B.a.M p.$ $ V.+ + : : : : + + + + + # < + : + + + O : : + + + + + @ + & ",
"- + + - + + : + : : : + + + # % = + + - + + + + C.Z.$ A.p S.M w.$ D.+ + - - + : + + + + + + # 1 # + + + O : + + + + + + + + + % ",
"- + : - + : + : : + + + + + # & - + : - + + F.G.: : H.J.K.M L.P.$ I.+ O + + : + : + + + @ + 2 < # + + - + + + + + + + + + + @ % ",
"- + O + + + : + + + + + + # + & - + O + + U.$ $ Y.T.R.$ E.M W.$ Q.O O : + : + : : + + @ + + + , # + : - + : + + + + + + > # & % ",
"- O + + + : + + + + @ + @ + + & - O + + + !.$ $ $ $ $ ~.M M ^.$ /.* : + + + : + + + @ + @ + + & - O : + : + : + + + + > # # & & ",
"; - + + + + + + + + # + + + + & ; - + + n.$ (.)._.`.$ '.].[.$ {.@ * : + + + + + + @ + @ + + + & * O : : + : + + + + > > # # & % ",
"; + + + + + + + + # # + + + + & ; + + + ] $ }.p |. X.XXXQ oX$ OX* : + + + + + + + + @ + + + + & * O : + : : + + + > # # @ # & & ",
"# + + + + + + + > # @ + @ + + & # + + +X$ $ $ @X#XM M M $X$ %X& * + + + + + + + > # @ + + + # & O : + + + + + @ + # @ + + @ # & ",
"# # + + + + + > # @ + @ + + + < & # + + U &X*X$ $ =X-XM ;X$ :X& O + + + + + + > # @ + + + + # & : + + + + + @ + @ @ + + + + # & ",
"# # + + + + > # @ + @ + @ + + < & # + + + @ >X,X$ <XQ 1X$ 2X3X& O + + + + + > > # + + + + + @ % + + + + + @ + @ + + + + + + + & ",
"# @ + + + > # @ + @ + + + + 2 1 & @ < + @ + 4X$ $ 5X6X7X$ 8X@ % + @ + + + > # # @ + + + + + + & + + + + @ + @ + + + + + + + + % ",
"@ + + > # # # + + + + + + < < , , < + @ + @ 9X0X$ $ $ $ qXwX@ % @ + @ + + # # # # @ + + + + + % @ + + + + + + + + + + + + + @ % ",
"@ # # # # # @ + + # # @ + + < 2 , < @ @ @ # # + eXrX$ $ tX+ # % # @ + + @ & & & & # # + + @ # % @ # # # + + + + + # # @ + + # % ",
"% % % % & % & & & & & % , 1 2 1 2 1 < , & % , 1 2 1 yXuXiX, % $ % % & % % % & % & & & & % % % $ % % % % & % & % % % & % & % % $ ",
"  o : O O O O O O O O O + < % , 1 1 & - - - - % 1 < % < & @ @ $   o : O O O O O O O O O + @ # % 5 * : O O : # % @.:.:.5 - @ # % ",
"= : + + + O : : + + + : : + @ 1 % < # < + + O - # # # # @ + # % = : + + + O : : + + + : : + @ % 5 : + + - : + : & >.5 : : + @ % ",
"= + + + O : + + + + : : + + < & + # < + : O + + + + + + + + # % = + + + O : + + + + : : + + + & - + + - : + : : & >.* : + + + & ",
"= + + - + + + + : : : + : + # % o + + - - + + + + + + + + > # % = + + - + + + + : : : + : + # % - + - + + : + + @ >.- + + + # % ",
"- + : - + + + : : : + : + + # & o + O + + + + + + + + + + # # & - + : - + + + : : : + : + + # & - + + + + + + + + @ - + + + # , ",
"- + O + + + + + : + : + + # + & O O : + : + : + + + + + > # # % - + O + + + + + : + : + + # + & # + + + + + + + + + - + + + + < ",
"1 O + + + + + : + + + + @ + + & O : + : + : + + + + + > # # @ & - O + + + + + : + + + + @ + + & & # @ + @ + + + + @ + + + + & < ",
"% # + + + + + + + + + + + + + & O : + + : + + + + + > # @ + + & ; - + + + + + + + + + + + + + & # & # # + @ + @ @ + @ + + @ , 2 ",
", # + + + + + + + + + + + + @ & O + + : : + + + + > # @ + + + & ; + + + + + + + + + + + + + @ & # @ + + # # # @ + + + + @ @ 1 2 ",
"% + + + + + + + + + + + + @ @ & O + + : + + + + # # @ + @ + # & # + + + + + + + + + + + + @ @ & @ + + + + + + # + + + + + & , < ",
"1 # + + + + + + + + + @ # # # & O + : : + + @ # # @ + @ + + # & # # + + + + + + + + + @ # # # & @ + + + + + @ + @ + + > + + % , ",
"& # + + + @ + + > > @ # + @ + & O : : + + + + + + + @ + + + @ % # # + + + @ + + > > @ # + @ + & @ + + + + + + + + + > @ @ + @ 2 ",
"# @ @ + @ + > > # # # + @ + @ % + : + + + + @ + + @ + @ + + + & # @ @ + @ + > > # # # + @ + @ % # + @ + + + + + + + > @ + + & 1 ",
"@ @ + @ + @ # # @ # + # + @ @ % @ + + + + # + + + + + + + + + % @ @ + @ + @ # # @ # + # + @ @ % # @ + @ + + + + + > @ + @ @ % , ",
"@ + @ @ @ # # + # + # + @ + # % # @ + # # + + + + + + + + @ # % @ + @ @ @ # # + # + # + @ + # % # # @ + @ + + + > # # @ @ & % , ",
"% % % % & % & & & & & % & % % $ $ % & % & & & & & & & & % % % $ % % % % & % & & & & & % & % % $ % % % % & % & & & & & % & % % $ "
};
