/* XPM */
static char *enemy[] = {
/* columns rows colors chars-per-pixel */
"64 64 38 1 ",
"  c #9BACAA",
". c #A1A9A3",
"X c #89928C",
"o c #93968B",
"O c #7E9154",
"+ c #536265",
"@ c #4E595A",
"# c #405638",
"$ c black",
"% c #28221F",
"& c #383F40",
"* c #888D82",
"= c #869A9C",
"- c #62797E",
"; c #616257",
": c #5A7B48",
"> c #5B6F73",
", c #206134",
"< c #377B36",
"1 c #4E9129",
"2 c #65A117",
"3 c #7C9193",
"4 c #52463F",
"5 c #8A7762",
"6 c #C2A180",
"7 c #2B211D",
"8 c #36A48E",
"9 c #394A50",
"0 c #577277",
"q c #202E37",
"w c #003C75",
"e c #005A97",
"r c #00749C",
"t c #89D4AE",
"y c #241527",
"u c #215B63",
"i c #411D31",
"p c #752438",
/* pixels */
" .XooOOOOOOO+@#$$%%&%&&@**OO+@#% .XooOOOOOOO+@#$ ===---;;*OO+@#$",
"=:+++O::+++::+@%=***OO**:+++@+@%=:+++O::+++::+@%o:++++O-++++@+@%",
"-+++O:++++::+++&=:+++O::+++++@+&-+++O:++++::+++&:+++:O+++++++@+&",
"-++-++:+:::+++#%=+++O:+++++++++%-++-++:+:::+++#%O++--++++++++++%",
"-+:-+:+::+++++#&-++-++++++++++@%-+:-+:+::+++++#&O+O+++++++++++@%",
"-+O+++:++++++#+&-+:-+:++++++>#&%-+O+++:++++++#+&OO:+++++++++>#&%",
"-O+++:++++@+@++&-O:+:+:++++>##&&-O+++:++++@+@++&-O:+:+:++++>##&&",
";-++++++++#++++&*O::+:++++>>##&%;-++++++++#++++&*O::+:++++>>##&%",
";++++++++##++++&*O:+::+++>##@#&&;++++++++##++++&*O:+::+++>##@#&&",
"#+++++++>#@+@++&O:+++++@+#@++@#&#+++++++>#@+@++&O:+++++@+#@++@#&",
"##+++++>#@+@+++&:+++++@+@@++++#&##+++++>#@+@+++&:+++++@+@@++++#&",
"##++++>#@+@+@++&+++++@+@+++++++&##++++>#@+@+@++&+++++@+@+++++++&",
"#@+++>#@+@+++++%++++@+@++++++++%#@+++>#@+@+++++%++++@+@++++++++%",
"@++>###+++++++@%@+++++++++++++@%@++>###+++++++@%@+++++++++++++@%",
"@#####@++##@++#$@###++&++##@+,#<,1####@++##@++#%@###+++++##@++#$",
"$%%%&%&&&&&%&%$$%%%%&%,&<,&%&12,122<&%&&&&&%&%%$$%%%&%&&&&&%&%$$",
" o:OOOOOOOOO+@#%3*:OO:%2,%#--#45566&---;;####@@$33---#&##@@@###$",
"=:+++O::+++::+@%3:++-:<112&::4555556++O-++##@@+%*:++++#&@++++@#%",
"=+++O:++++::+++&-++-:+#<1<,:+45555556O++++++@+@%:++-++@#++++@+@%",
"=++-++++:::+:+#%-+-++:+2<,#++44776557++++++++@@%O+-++++#+++++@+%",
"-+:-+++:::+:++#&-++++++,#--++44787678+++++++@+@&O-:+++@+#+++++@&",
"-+O+++++:+:++#+&#+++++++++-++44455754++++++@+@#%::+:+++@#++++++%",
"-O+++++:++++@++&&#@+@++++@999++44454++++++++>##&#+:+++++#+@++++&",
";-+++++++++++++&#&##+@+@@9099q+77444:+:+++++>#+%%::++++@@#+++++&",
";+++++++++++++@&#@++###@9099qq544++:::+++++>#@#%w&&@+++@++@+++>&",
"#++++++++++++@@&@++++++#q99qq77565556++++++>##+%eerr@+@++++++>#&",
"##+++++++++@###&@+++++@+@qqq4557677554+++++@#+#&e 3---+@+++>>@#&",
"##+++@++>>@#+@+&@+++++++55747775654474++++@#+#+%3::+++++++>@@+@%",
"#@@+@+>>###+@+@%#+@++++544>745565777774+++#+@2@,-:+++++++++@+@@&",
"@@+@+@##@#+#900%#@+@++554>@47776754++74++@#@+2<2@,+++++++++++@&%",
"@+@@@##+#+#+tq990#@+5544>##74455777##744@@#+@@1,2%+##2+++++@&%%$",
"%%%%&%&&&&&%t%qq955544&&&&&%777754&%&&74&&&%,1,12,1<1,<%&&%%$%$$",
" .XooOOOOOOO8@#%qq44qOOOOOOO77-rrr==--77*O:+1#%%<1%<,%&@**OO+@#$",
"=:+++O::+++8:+@%=:qq+O::+yy777@yr :+++O74:++++#$2,**OO**:+++@+@%",
"-+++O:++++:u+++&=+++O:+++yiyyyyp%*+++::74+++++#<+:+++O::+++++@+&",
"-++-++:+:::u++#%=++-++++::yyipyi&*++--+:74++++#1#+++O:+++++++++%",
"-+:-+:+::++t++#&-+:-+++:::5yipy7%O+O++:+:7++@+2<#++-++++++++++@%",
"-+O+++:++tu8ut+&-+O+++++:+5yypy74OO:+:+::++@+++,#+:-+:++++++>#&%",
"-O+++:+++u8u8u+&-O+++++:+55+yiy744:+++:+++@+@++&-O:+:+:++++>##&&",
";-++++++t8t8t8t&;-+++++++54+yi+&744++++++@+@+++&*O::+:++++>>##&%",
";++++++++u8u8u+&;+++++++664++i@&*755++++++@++++&*O:+::+++>##@#&&",
"#+++++++>tu8ut+&#+++++++66+++y@&*+55++++>#@+++#&O:+++++@+#@++@#&",
"##+++++>#@+t+++<&#++++++64+@###&O+75+++>#@++++#&:+++++@+@@++++#&",
"##++++>#@+@+@++<&#+++@+54>@#+@+&O+77++>>#+++++@%+++++@+@+++++++&",
"#@+++>#@+@++++21&@<+@+>54##+@+@%+@74+>##@++++++&++++@+@++++++++%",
"@++>###++++++<<,,<+@+@#54#+#+@@%@74++####@+++++%@+++++++++++++@%",
"@#####@++##@++<2,<@@@#661+#+@+#%#77+@&&&&##++@#%@###+++++##@++#%",
"%%%%&%&&&&&%,12121<,&654212,1,%$%774%%&%&&&&%%%$%%%%&%&%%%&%&%%$",
" o:OOOOOOOOO+<%,11&----%1<%<&@@$ o:OOOOOOOOO+@#%3*:OO:#%wee3-@#%",
"=:+++O::+++::+@1%<#<++O-####@+#%=:+++O::+++::+@%3:++-:+:&r3::+@%",
"=+++O:++++::++<&+#<+:O++++++++#%=+++O:++++::+++&-++-:+::&r*:+++&",
"=++-++++:::+:+#%o++--++++++++>#%=++-++++:::+:+#%-+-++:++@r-+++#%",
"-+:-+++:::+:++#&o+O++++++++++##&-+:-+++:::+:++#&-++++++++@-+++#,",
"-+O+++++:+:++#+&OO:+:+:+++++>##%-+O+++++:+:++#+&#+++++++++-++++<",
"1O+++++:++++@++&O:+:+:+++++>##@&-O+++++:++++@++&&#@+@++++@++++&<",
"%#+++++++++++++&O:++:+++++>#@++&;-+++++++++++++&#&##+@+@@+@++@,2",
",#++++++++++++@&O++::++++>#@+++&;+++++++++++++@&#@++###@++++@@12",
"%++++++++++++@@&O++:++++##@+@+#&#++++++++++++@@&@++++++#+++++&,<",
"1#+++++++++@###&O+::++@##@+@++#&##+++++++++@###&@+++++@+@++>++%,",
"&#+++@++>>@#+@+&O::+++++++@+++@%##+++@++>>@#+@+&@+++++++++>@@+@2",
"#@@+@+>>###+@+@%+:++++@++@+@+++&#@@+@+>>###+@+@%#+@+++++++>@++&1",
"@@+@+@##@#+#+@@%@++++#+++++++++%@@+@+@##@#+#+@@%#@+@+++++>@+@@%,",
"@+@@@##+#+#+@+#%#@+##++++++++@#%@+@@@##+#+#+@+#%##@+@+++>##@@&%,",
"%%%%&%&&&&&%&%%$$%&%&&&&&&&&%%%$%%%%&%&&&&&%&%%$%%%%&%&&&&&%&%%$"
};
