/* XPM */
static char *enemy_flip[] = {
/* columns rows colors chars-per-pixel */
"64 64 38 1 ",
"  c #9BACAA",
". c #A1A9A3",
"X c #89928C",
"o c #93968B",
"O c #7E9154",
"+ c #536265",
"@ c #4E595A",
"# c #405638",
"$ c black",
"% c #28221F",
"& c #383F40",
"* c #888D82",
"= c #869A9C",
"- c #62797E",
"; c #616257",
": c #5A7B48",
"> c #5B6F73",
", c #206134",
"< c #377B36",
"1 c #4E9129",
"2 c #65A117",
"3 c #7C9193",
"4 c #C2A180",
"5 c #8A7762",
"6 c #52463F",
"7 c #2B211D",
"8 c #36A48E",
"9 c #394A50",
"0 c #202E37",
"q c #577277",
"w c #003C75",
"e c #005A97",
"r c #00749C",
"t c #89D4AE",
"y c #241527",
"u c #752438",
"i c #411D31",
"p c #215B63",
/* pixels */
" .XooOOOOOOO+@#$$%%&%&&@**OO+@#% .XooOOOOOOO+@#$ ===---;;*OO+@#$",
"=:+++O::+++::+@%=***OO**:+++@+@%=:+++O::+++::+@%o:++++O-++++@+@%",
"-+++O:++++::+++&=:+++O::+++++@+&-+++O:++++::+++&:+++:O+++++++@+&",
"-++-++:+:::+++#%=+++O:+++++++++%-++-++:+:::+++#%O++--++++++++++%",
"-+:-+:+::+++++#&-++-++++++++++@%-+:-+:+::+++++#&O+O+++++++++++@%",
"-+O+++:++++++#+&-+:-+:++++++>#&%-+O+++:++++++#+&OO:+++++++++>#&%",
"-O+++:++++@+@++&-O:+:+:++++>##&&-O+++:++++@+@++&-O:+:+:++++>##&&",
";-++++++++#++++&*O::+:++++>>##&%;-++++++++#++++&*O::+:++++>>##&%",
";++++++++##++++&*O:+::+++>##@#&&;++++++++##++++&*O:+::+++>##@#&&",
"#+++++++>#@+@++&O:+++++@+#@++@#&#+++++++>#@+@++&O:+++++@+#@++@#&",
"##+++++>#@+@+++&:+++++@+@@++++#&##+++++>#@+@+++&:+++++@+@@++++#&",
"##++++>#@+@+@++&+++++@+@+++++++&##++++>#@+@+@++&+++++@+@+++++++&",
"#@+++>#@+@+++++%++++@+@++++++++%#@+++>#@+@+++++%++++@+@++++++++%",
"@++>###+++++++@%@+++++++++++++@%@++>###+++++++@%@+++++++++++++@%",
"@#####@++##@++#$@###++&++##@+,#<,1####@++##@++#%@###+++++##@++#$",
"$%%%&%&&&&&%&%$$%%%%&%,&<,&%&12,122<&%&&&&&%&%%$$%%%&%&&&&&%&%$$",
" o:OOOOOOOOO+@#%3*:OO:%2,%#--44556,&---;;####@@$33---#&##@@@###$",
"=:+++O::+++::+@%3:++-:<112&:4555556+++O-++##@@+%*:++++#&@++++@#%",
"=+++O:++++::+++&-++-:+#<1<,45555556+:O++++++@+@%:++-++@#++++@+@%",
"=++-++++:::+:+#%-+-++:+2<,#75547766--++++++++@@%O+-++++#+++++@+%",
"-+:-+++:::+:++#&-++++++,#--87478766+++++++++@+@&O-:+++@+#+++++@&",
"-+O+++++:+:++#+&#+++++++++-65755666++++++++@+@#%::+:+++@#++++++%",
"-O+++++:++++@++&&#@+@++++@++65666:+999++++++>##&#+:+++++#+@++++&",
";-+++++++++++++&#&##+@+@@+@+66677:099q9+++++>#+%%::++++@@#+++++&",
";+++++++++++++@&#@++###@+++++++6650099q9+++>#@#%w&&@+++@++@+++>&",
"#++++++++++++@@&@++++++#+++4555457700990+++>##+%eerr@+@++++++>#&",
"##+++++++++@###&@+++++@+@+6557747556000++++@#+#&e 3---+@+++>>@#&",
"##+++@++>>@#+@+&@+++++++++67665457776755++@#+#+%3::+++++++>@@+@%",
"#@@+@+>>###+@+@%#+@++++++677777545567+665+#+@2@,-:+++++++++@+@@&",
"@@+@+@##@#+#+@@%#@+@+++++67+@65747776#+655#@+2<2@qq9+++++++++@&%",
"@+@@@##+#+#+@+#%##@+@+++667@@77755667+++6655@@1q990t#2+++++@&%%$",
"%%%%&%&&&&&%&%%$%%%%&%&&67&%&%657777&&&&&&665559001t1,<%&&%%$%$$",
" .XooOOOOOOO+@#% o:OOOOO77OO+@-rrr77---**O:06600<1%8,%&@**OO+@#$",
"=:+++O::+++::+@%=:+++O:67++::+@-y 777yyOO:++00#$2,**8O**:+++@+@%",
"-+++O:++++::+++&=+++O:+67+::+++&uyyyyiy::+++++#<+:++pO::+++++@+&",
"-++-++:+:::+++#%=++-++67:::+:+#%iyuiyy+:++++++#1#+++p:+++++++++%",
"-+:-+:+::+++++#&-+:-++7:::+:++#&7yuiy5:+:+++@+2<#++-t+++++++++@%",
"-+O+++:++++++#+&-+O+++++:+:++#+67yuyy5+::++@+++,#+tp8pt+++++>#&%",
"-O+++:++++@+@++&-O+++++:++++@+667yiy+55+++@+@++&-Op8p8p++++>##&&",
";-++++++++#++++&;-+++++++++++667@*iy+65++@+@+++&*t8t8t8t++>>##&%",
";++++++++##++++&;+++++++++++557&*:i++644++@++++&*Op8p8p++>##@#&&",
"#+++++++>#@+@++&#+++++++++++55@&*+y+++44>#@+++#&O:tp8pt@+#@++@#&",
"##+++++>#@+@+++<&#+++++++++@57#&O+++++64#@++++#&:+++t+@+@@++++#&",
"##++++>#@+@+@++<&#+++@++>>@#77+&O+++++>65+++++@%+++++@+@+++++++&",
"#@+++>#@+@++++21&@<+@+>>###+67@%+@+++>#65++++++&++++@+@++++++++%",
"@++>###++++++<<,,<+@+@##@#+#+67%@+@++##65@+++++%@+++++++++++++@%",
"@#####@++##@++<2,<@@@##+1+#+@77%#@++@&&&44#++@#%@###+++++##@++#%",
"%%%%&%&&&&&%,12121<,&%,1212,677$%%&%%%&%654&%%%$%%%%&%&%%%&%&%%$",
" o:OOOOOOOOO+<%,11&----%1<%<&@@$ o:OOOOOOOOO+@#%3*:OO:#%wee3-@#%",
"=:+++O::+++::+@1%<#<++O-####@+#%=:+++O::+++::+@%3:++-:+:&r3::+@%",
"=+++O:++++::++<&+#<+:O++++++++#%=+++O:++++::+++&-++-:+::&r*:+++&",
"=++-++++:::+:+#%o++--++++++++>#%=++-++++:::+:+#%-+-++:++@r-+++#%",
"-+:-+++:::+:++#&o+O++++++++++##&-+:-+++:::+:++#&-++++++++@-+++#,",
"-+O+++++:+:++#+&OO:+:+:+++++>##%-+O+++++:+:++#+&#+++++++++-++++<",
"1O+++++:++++@++&O:+:+:+++++>##@&-O+++++:++++@++&&#@+@++++@++++&<",
"%#+++++++++++++&O:++:+++++>#@++&;-+++++++++++++&#&##+@+@@+@++@,2",
",#++++++++++++@&O++::++++>#@+++&;+++++++++++++@&#@++###@++++@@12",
"%++++++++++++@@&O++:++++##@+@+#&#++++++++++++@@&@++++++#+++++&,<",
"1#+++++++++@###&O+::++@##@+@++#&##+++++++++@###&@+++++@+@++>++%,",
"&#+++@++>>@#+@+&O::+++++++@+++@%##+++@++>>@#+@+&@+++++++++>@@+@2",
"#@@+@+>>###+@+@%+:++++@++@+@+++&#@@+@+>>###+@+@%#+@+++++++>@++&1",
"@@+@+@##@#+#+@@%@++++#+++++++++%@@+@+@##@#+#+@@%#@+@+++++>@+@@%,",
"@+@@@##+#+#+@+#%#@+##++++++++@#%@+@@@##+#+#+@+#%##@+@+++>##@@&%,",
"%%%%&%&&&&&%&%%$$%&%&&&&&&&&%%%$%%%%&%&&&&&%&%%$%%%%&%&&&&&%&%%$"
};
