/* XPM */
static char *exit_open[] = {
/* columns rows colors chars-per-pixel */
"64 64 100 2 ",
"   c #000000",
".  c #070806",
"X  c #080907",
"o  c #0B0B0A",
"O  c #0F100E",
"+  c #10100E",
"@  c #161613",
"#  c #171815",
"$  c #191916",
"%  c #1D1D1A",
"&  c #1F201C",
"*  c #22221E",
"=  c #28221F",
"-  c #252621",
";  c #282722",
":  c #272924",
">  c #2A2A25",
",  c #2E2F29",
"<  c #312F2A",
"1  c #2F3029",
"2  c #34322D",
"3  c #363730",
"4  c #383630",
"5  c #373830",
"6  c #3B3A33",
"7  c #3E4037",
"8  c #3F4138",
"9  c #206134",
"0  c #377B36",
"q  c #43433A",
"w  c #48473E",
"e  c #47493F",
"r  c #49483E",
"t  c #405638",
"y  c #383F40",
"u  c #4B4B42",
"i  c #514F45",
"p  c #4E5045",
"a  c #525147",
"s  c #535449",
"d  c #58564B",
"f  c #5B594E",
"g  c #4E595A",
"h  c #5D5B50",
"j  c #615F53",
"k  c #5A7B48",
"l  c #636255",
"z  c #676558",
"x  c #69675A",
"c  c #6D6B5D",
"v  c #536265",
"b  c #5B6F73",
"n  c #706E60",
"m  c #747263",
"M  c #797767",
"N  c #7C7A6A",
"B  c #62797E",
"V  c #817F6E",
"C  c #65A117",
"Z  c #4E9129",
"A  c #7E9154",
"S  c #82806F",
"D  c #848271",
"F  c #898675",
"G  c #8B8877",
"H  c #8F8D7A",
"J  c #918F7C",
"K  c #93917E",
"L  c #888D82",
"P  c #89928C",
"I  c #969480",
"U  c #9D9B86",
"Y  c #93968B",
"T  c #869A9C",
"R  c #A5A38D",
"E  c #A9A790",
"W  c #ACAA93",
"Q  c #B5B39B",
"!  c #B9B69E",
"~  c #9BACAA",
"^  c #A1A9A3",
"/  c #BDBBA2",
"(  c #C1BFA5",
")  c #C3C1A7",
"_  c #C5C3A9",
"`  c #C8C7AB",
"'  c #CBCAAE",
"]  c #CFCEB1",
"[  c #D0CFB2",
"{  c #D3D2B4",
"}  c #D7D4B8",
"|  c #D9D6BA",
" . c #DDDBBD",
".. c #E1DFC0",
"X. c #E6E4C4",
"o. c #E8E8C6",
"O. c #ECEBCA",
"+. c #F0EECD",
"@. c #F1F0CE",
"#. c #FAFAD6",
/* pixels */
"~ ^ P Y Y A A A A A A A v g 8 .   - = y = y y g L L A A v g t - ~ ^ P Y Y S A A A A A A v g t   ~ T T T B B B l l L A A v g 8 . ",
"T k v v v A k k v v v k k v g * T G L L A A L L k v v v j n l n d j J G v S k Z v v v k k v g = Y k v v v v A B v v v v g v g * ",
"B v v v A k v v v v k k v v v 8 T k v v v A k k v a w n } o.+.#._ ! ( ' m V J S v v k k v v v y k v v v k A v v v v v v v g v 8 ",
"B v v B v v k v k k k v v v 8 - T v v v A k < a n z ] } N M G G c m j j '  .} c 4 4 k v v v t = A v v B B v v v v v v v v v v - ",
"B v k B v k v k k v v v v v t y B v v B n j J 6 M _ c M n M M N c m z c j V h ( 4 +.X. .4 v t y A v A v v v v v v v v v v v v * ",
"B v A v v v k v v v v v v 0 v y B v i i D X.+.V 2 m N V V M m F n n n n j m n 6 (  .D J  .{ < y A A k v v v v v v v v v b 8 8 * ",
"B A v v v k v v v v g v g v v y i i M } | D V ! < D V M N m x D c m n c c f h 2 ' D m M c m ` i B A k v k v k v v v v b t 0 y y ",
"l B v v v v v v v v t v v v v < c {  .N D M D c ( < n n M N N n V h c l l h < ` / c m N M V c ' 2 A k k v k v v v v b b t 8 y - ",
"j v v v v v v v v t t v v a d n < { V M m x M m } < < h n z m z c x z f j < < ( f m c S M m m < x V k v k k v v v b t t g t y y ",
"t v v v v v v v b t g v d F  ._ < M N V M x V M n ( 2 s c 2 6 - 6 4 > l j < h ` n S z M N M N 2 n | x v v v v g v t g v v g t y ",
"t t v v v v v b t g v u n [ ..n V 6 N V M m n x j ( 2 6 6           . 2 2 < j ( S S z x M c 6 m [ D  .a v v g v g g v v v v t y ",
"t t v v v v b t g v u c [ M m N c 2 l N c x j z 2 <                   .     < 6 M c n c M f 4 | n m V } r g v g v v v v v v v y ",
"t g v v v b t g v 6 x ` V m V n c N 2 c z n 6 2                                 4 4 m l M 2  .c m n M M [ q g v v v v v v v v ; ",
"g v v b t t t v q d ' n M M n n m M 6 h 4 6                                         2 4 f J ` n m V V n n | q v v v v v v v g = ",
"g t t t t t g v w Q [ M M n m M c j M 6                                                 4 c n m m l M M x M ( 6 v t t g v v t   ",
"  = = = y = y 2 6 j j j c n n n c l 2                                                     4 x z n n n n j c ] 6 y y y = y =     ",
"~ Y k S S A r } 4 4 d x c z c c j <                                                         2 c j z n j h d 6 6 i g g g t t t   ",
"T k v v k A e ` ` c 2 4 x s h c 6                                                             4 n l l h 2 G [ } i v v v v g t = ",
"T v v v S Z r ' m { M N 2 i d 6                                                                 4 f h 6 ..} c c | i v v g v g = ",
"T v v B v d ` M c c { o.n 4 7                                                                     4 6  .D V V n ' q v v v g v = ",
"A v k B v a ` n m c z V { 6                                                                         2 n V c V m [ j v v v v g 6 ",
"B j S v v } V m N x N N n 2                                                                         2 x m V V c N ..u v v v v ; ",
"B A v v f  .J S n M V V 6                                                                             4 c V n c m } d v v v v y ",
"v B v v a ] V M c l z m 6                                                                             2 z c j j x M } a v v v y ",
"g v v v 2 m n M l h n h 6                                                                             4 l c f j x n ( 6 v v b y ",
"8 v v v ] 2 < 4 f i n 6                                                                                 2 d r i 6 6 V u v b t y ",
"t t v J V [ ( < 2 2 4 4                                                                                 > 4 2 n @.....n 4 g t y ",
"t 9 v ' n M M ] ` j 2 <                                                                                 ; 6 _ ] F N N n f v g = ",
"t g g ' m V G F m ` <                                                                                     4 / n N n V m i g g y ",
"g g v { x z m M x f <                                                                                     2 Q n n n N n d g y = ",
"g v g [ c n V V x c 4                                                                                     2 ` n n F n M i = =   ",
"> = = +.M m V m n M 2                                                                                     4 ` j j M c c f -     ",
"~ ^ P | j z d f n x 2                                                                                     4 ' N l c n l q g t   ",
"T k v ' f i M j l h 2                                                                                     2 _ c z D i f r v g = ",
"B v v ) f s M a l w 2                                                                                     2 W z h c r i u g v 6 ",
"B v v < 6 6 6 2 4 2 2                                                                                     4 < 2 2 < 2 4 4 v v ; ",
"B v k [ '  .` [ { z 4                                                                                     2 )  .| ` `  .i v g : ",
"B v S | m N N K n j 2                                                                                     4 ' M N n M S h 8 y = ",
"B A v { N l x n n z 2                                                                                     6 / j z m S n d t y y ",
"g A v _ m m m M z z 2                                                                                     4 { m M m N N f t y = ",
"l v v ` h n m l d c 2                                                                                     < [ c M m c x s t 8 y ",
"t v v } z l f h N N 2                                                                                     2 | V l l x z r g 8 y ",
"t t v ` d p n h M m 2                                                                                     4 ( j f m a c d v 0 y ",
"t t v / s p l l M r 2                                                                                     < U j f l u h u v v y ",
"8 g v 3 4 , 2 4 4 2 4                                                                                     4 6 2 < < < 2 2 v v = ",
"g v v ` ( [ ' { ( f 2                                                                                     6 ` [ [ [ [ ' a v g = ",
"g 0 8 ] n N V N n d 4                                                                                     4 ` j M n N n r v e - ",
"= = = } c N M n M f 2                                                                                     6 ` n x z M N r = =   ",
"~ Y k ' m n c M m c 2                                                                                     2 [ m m G m N i g t = ",
"T k v } c S m z h z 2                                                                                     < ` c n V n j r v g = ",
"T v v ( c S z j M c 2                                                                                     2 / n x l c j q v v y ",
"T v v ( f f M x x h <                                                                                     2 ` c f n r z i v t = ",
"B v k ' h r h r x w <                                                                                     2 W c d m r a q v t 9 ",
"B v A 5 4 q 2 2 2 > 2                     .   .   . . .   .   . .     .   . . . .   .       .   .   .     2 2 < 2 6 2 < 6 v v 0 ",
"Z S v Q / ( ` _ ) c 6       .   . . X X X X . X X X X X X X X X X X X X X X o X X X o X . . . . . X . . X 6 _ / / Q / Q 4 v y 0 ",
"= t v Q x f j c z z 2 . X . X X X X o o o o O O + + @ o @ o @ o + @ o @ + + + o @ + O O O O O o o o o o o 4 Q h d j f c 4 g 9 C ",
"9 t v W j a f z j l 4 X X X o o O O O O @ @ @ # # # # # # # # # # # # # # # # # # # # @ @ @ @ @ @ + + + + 2 ( j d j i j 4 g Z C ",
"= v v R a a i h d i 6 X o + + + @ @ @ $ $ % & & % & & & & & & & & % & % % * & % & & & & & $ $ % $ $ $ @ @ 2 R a j j j u 2 y 9 0 ",
"Z t v I r a w u i i 4 + + + @ $ % % & & & * - : > ; > : : : > : ; : ; : : : ; ; : : : : * - * * * & & & % 4 R d j j f q 2 v = 9 ",
"8 t v K 6 r r 6 q r < @ # # % & & - - : , , 1 1 1 2 1 1 1 1 1 1 2 1 2 1 , 2 1 2 1 1 1 1 1 > > > ; ; - = = 4 W w w u u 6 < v g C ",
"t g g I 6 6 r 4 7 q , $ $ & = - : : 1 1 1 3 5 5 5 6 6 5 6 6 6 7 5 7 5 7 6 6 6 5 7 5 7 5 3 2 2 1 < , > > ; 4 I 8 2 6 4 q > v y Z ",
"g g v J 4 > 6 2 7 4 > % * - > > , 3 3 3 5 7 8 8 q q 8 8 8 y 8 8 8 8 8 8 q 8 8 q 8 8 7 7 7 7 6 5 4 3 3 2 < 4 G q 2 4 2 4 ; g = 9 ",
"g v g 2 < < 2 6 2 2 3 * - , , 2 1 5 7 7 8 8 u u u u u u t u u u u u u u u u u u u e u u u 8 8 8 6 6 6 3 4 2 4 2 2 4 2 2 ; y = 9 ",
"= = = 6 4 2 4 6 6 4 2 : , 1 2 5 7 8 8 e u p p p s s s s s s s s s s p s s s s s s s s p p u u u u q q 6 6 4 2 < < 2 < 2 4 = =   "
};
