/* XPM */
static char *exit[] = {
/* columns rows colors chars-per-pixel */
"64 64 176 2 ",
"   c #000000",
".  c #080907",
"X  c #0B0B09",
"o  c #070806",
"O  c #10100E",
"+  c #161613",
"@  c #1A1C1A",
"#  c #251716",
"$  c #2B1B1B",
"%  c #271818",
"&  c #311F1E",
"*  c #1E211E",
"=  c #28221F",
"-  c #22231E",
";  c #33201F",
":  c #3E2A1F",
">  c #252622",
",  c #262926",
"<  c #2C2B26",
"1  c #282722",
"2  c #352121",
"3  c #3B2524",
"4  c #3F2924",
"5  c #312F2A",
"6  c #2F302A",
"7  c #34332D",
"8  c #383630",
"9  c #3B3A33",
"0  c #363939",
"q  c #393D3D",
"w  c #363834",
"e  c #402726",
"r  c #412B25",
"t  c #432A2A",
"y  c #463024",
"u  c #4B3326",
"i  c #4F3628",
"p  c #4A3D2B",
"a  c #503728",
"s  c #553A2B",
"d  c #5A3E2D",
"f  c #3F4038",
"g  c #206134",
"h  c #377B36",
"j  c #4C412F",
"k  c #5C412F",
"l  c #57412D",
"z  c #43433A",
"x  c #48473E",
"c  c #49483E",
"v  c #4C4535",
"b  c #514532",
"n  c #5E4130",
"m  c #594C36",
"M  c #5C4F39",
"N  c #405638",
"B  c #5F513A",
"V  c #634332",
"C  c #684735",
"Z  c #644A34",
"A  c #6C4B36",
"S  c #6F4C38",
"D  c #724E3A",
"F  c #63543D",
"G  c #6C5138",
"H  c #75523C",
"J  c #78523D",
"K  c #76583D",
"L  c #795A3F",
"P  c #383F40",
"I  c #3F4343",
"U  c #424646",
"Y  c #4C4B42",
"T  c #454949",
"R  c #4A4E4E",
"E  c #514F45",
"W  c #535147",
"Q  c #545449",
"!  c #58564B",
"~  c #5B594E",
"^  c #4D5252",
"/  c #4E595A",
"(  c #5D5B50",
")  c #545959",
"_  c #515656",
"`  c #6A5B41",
"'  c #7D5D41",
"]  c #615F53",
"[  c #5A7B48",
"{  c #766549",
"}  c #78674A",
"|  c #7B694C",
" . c #716045",
".. c #636255",
"X. c #676558",
"o. c #69675A",
"O. c #6D6B5D",
"+. c #536265",
"@. c #586669",
"#. c #5B6F73",
"$. c #706E60",
"%. c #747263",
"&. c #797767",
"*. c #7C7A6A",
"=. c #62797E",
"-. c #6E7375",
";. c #74797B",
":. c #805F42",
">. c #846245",
",. c #896647",
"<. c #8A6748",
"1. c #816E4F",
"2. c #8D6949",
"3. c #936D4C",
"4. c #96704E",
"5. c #99724F",
"6. c #816F50",
"7. c #857252",
"8. c #8B7655",
"9. c #8D7957",
"0. c #9B7451",
"q. c #947E5A",
"w. c #A07753",
"e. c #A17854",
"r. c #817F6E",
"t. c #65A117",
"y. c #4E9129",
"u. c #7E9154",
"i. c #97815C",
"p. c #82806F",
"a. c #9E8761",
"s. c #9F8862",
"d. c #848271",
"f. c #898675",
"g. c #8B8877",
"h. c #8F8D7A",
"j. c #918F7C",
"k. c #93917E",
"l. c #A48C65",
"z. c #AB9269",
"x. c #B0966C",
"c. c #B99E72",
"v. c #BBA073",
"b. c #C2A678",
"n. c #888D82",
"m. c #848A8B",
"M. c #89928C",
"N. c #969480",
"B. c #93968B",
"V. c #9D9B86",
"C. c #869A9C",
"Z. c #92999B",
"A. c #A5A38D",
"S. c #ABA992",
"D. c #B5B39B",
"F. c #B9B69E",
"G. c #9CAAA9",
"H. c #A2AAA8",
"J. c #BDBBA1",
"K. c #AFB7B9",
"L. c #B0B8BA",
"P. c #C1BFA5",
"I. c #C3C1A7",
"U. c #C5C3A9",
"Y. c #C8C7AB",
"T. c #CBCAAE",
"R. c #CFCEB1",
"E. c #D3D2B4",
"W. c #D7D4B8",
"Q. c #D9D6BA",
"!. c #DDDBBD",
"~. c #D0CFB2",
"^. c #E1DFC0",
"/. c #E7E6C6",
"(. c #F0EECD",
"). c #F5F5D2",
/* pixels */
"G.H.M.B.B.u.u.u.u.u.u.u.+./ f o   = = P = P P / n.n.i.u.+./ N 1 G.H.M.B.B.u.u.u.i.u.u.u.+./ N   G.C.C.C.=.=.=.....n.u.u.+./ f o ",
"C.[ +.+.+.u.[ [ +.+.+.[ [ +./ - C.n.n.n.u.i.n.m.[ +.+.+.] $.] $.! ] j.g.+.i.[ y.+.+.+.y.[ +./ > B.[ +.+.+.+.u.=.+.+.+.+./ +./ > ",
"=.+.+.+.u.[ +.+.+.+.[ [ +.+.+.f C.[ +.+.+.u.[ [ +.Q f %.Q./.(.).Y.F.P.T.&.*.n.r.+.+.[ [ +.+.+.P [ +.+.+.[ u.+.+.+.+.+.+.+./ +.I ",
"=.+.+.=.+.+.[ +.[ [ [ +.+.@.f > C.+.+.+.u.y.6 R $.X.T.Q.*.*.g.g.O.$.] ..T.!.Q.O.8 7 [ +.+.+.I , u.+.+.=.=.+.+.+.+.+.+.+.+.+.+.- ",
"=.+.[ =.+.[ +.[ [ +.+.+.+.+.N q =.+.+.=.$.] k.9 &.Y.O.&.$.*.&.r.$.%.] O.] *.] P.0 (./.^.w +.f I u.+.u.+.+.+.+.+.+.+.+.+.+.@./ - ",
"=.+.u.+.+.+.[ +.+.+.+.+.+.h +.P =.+.Y E d./.(.*.6 %.*.r.r.&.$.g.$.%.$.$.] %.$.0 J.^.r.n.!.E.6 q u.u.[ +.+.+.+.+.+.+.+.+.#.f f - ",
"=.u.+.+.+.[ +.+.+.+./ +./ +.+.P Y E *.E.Q.d.*.J.6 d.u.$.*.&.X.r.$.$.$.$.O.~ ] 7 T.r.$.*.O.%.Y.E =.u.[ +.[ +.[ +.+.+.+.#.N N I I ",
"..=.+.+.+.+.+.+.+.+.N +.+.+.+.5 $.E.!.*.d.&.d.O.U.6 -.$.&.&.*.$.*.] $.] ] ] 7 P.J.$.%.*.*.u.O.T.7 u.[ [ +.[ +.+.+.+.#.=.N g f * ",
"] +.+.+.+.+.+.+.+.N N +.+.Q ! O.5 E.r.&.&.X.&.%.E.5 7 ~ $.X.%.X.$.o.] ] ..5 5 J.~ %.O.p.&.%.%.5 o.r.[ +.[ y.+.+.+.#.N N / N P P ",
"N +.+.+.+.+.+.+.#.N / @.! f.Q.Y.7 *.&.p.&.X.d.&.$.I.7 Q O.7 9 = 9 7 5 ] ] 5 ~ Y.$.p.X.&.*.&.*.7 $.^.] +.@.+.+./ +.N / +.+./ N P ",
"N N +.+.+.+.+.#.N / +.Y $.~.^.O.*.9 &.r.&.%.$.X...F.7 9 9 : : : : : e 7 7 7 ..P.p.p.o.O.&.O.9 &.~.r.!.^ @.+./ +./ / +.+.+.+.N P ",
"N N +.+.+.+.#.N / +.x O.~.&.&.*.O.7 ..*.$.X.....7 7 : y : y y r y : : r : r 5 8 &.O.$.O.&.~ 7 Q.$.%.r.W.U / +./ +.+.+.+.+.+.+.P ",
"N / +.+.+.#.N / +.9 X.T.r.%.*.%.$.&.7 $.X.%.9 7 $ % % % r % % $ % % % r $ % % % 8 7 %...&.7 !.O.%.%.&.&.R.f / +.+.+.+.+.+.+.+.$ ",
"/ +.+.#.N N N +.z ! R.$.&.&.$.$.%.&.9 ~ 8 9 %         Z u $         Z y %         Z 7 8 ~ j.Y.$.%.r.r.$.$.Q.z +.+.+.+.+.+.+./ 1 ",
"/ N N N N N / +.z D.~.&.%.$.&.&.O.] &.9 Z i $         A u $         A i $         Z i $ 8 $.$.%.%.] &.&.X.&.P.f +.f N ) +.+.N   ",
"  = = = P 1 P 7 9 ] ( ..O.%.$.O.O.] 7   A a $         G a $         G a &         G i %   7 o.X.$.$.$.$...$.T.w f I P = P =     ",
"G.B.[ i.u.u.N Q.7 7 ! O.O.X.O.$...7     G s =         H s $         G s &         G s =     7 O.] o.$.] ] W 8 9 ^ _ / / N N N   ",
"C.[ +.+.+.u.U Y.Y.%.7 9 o.W ! O.8 b ` 7.H s ; j F } 9.K s 2 j B { 8.' s & p F { 9.J d $ p m ` w $.] ] ] 8 g.E.Q.E +.+.+.+./ N = ",
"C.+.+.+.u.[ E T.%.E.*.*.7 W ! 9 Z A G G m.U ' ' ' ' ' m.I ' ' ' ' ' m.I ' ' ' ' ' m.I K H G A G 8 ~ ] t ^.Q.$.$.W.R +.+./ +./ = ",
"C.+.+.=.+.! Y.&.O.O.E./.%.7 9 u u u s s P @ V d d V d T * n d n d d T * d d n n k U * n s s s i a 8 0 !.r.*.r.%.T.p +.+.+./ +.= ",
"=.+.[ =.+.W U.O.&.O.X.*.E.8 u $ $ $ & 2 2 V 2 2 3 2 3 2 V 2 2 3 3 3 2 V 3 2 3 2 2 3 V 2 2 & & & $ a 7 $.*.$.u.-.~.] +.+.+.+./ P ",
"=.+.u.+.+.E.u.%.&.o.&.*.$.7 u $         :.C 3         ,.C 3         ,.C 3         ,.C 2         H a 7 o.&.*.&.O.*.^.Y +.+.+.+.= ",
"=.u.+.+.~ ^.B.r.$.&.d.*.9 V u $         ,.C 3         2.C 3         <.C 3         ,.C 3         H s $ 7 O.p.%.o.&.W.! +.+.+.+.P ",
"] =.+.+.W R.*.&.O...X.&.9 Z a $         <.A e         3.S 4         3.A 4         3.C 3         ' s & 7 X.$.( ..X.&.W.W +.+.+.P ",
"..+.+.+.7 %.$.&.] ( $.] 9 Z a &         2.S e         4.D e         4.D e         4.S 4         :.d & 8 ..O.~ ] o.$.P.9 +.+.#.P ",
"U +.+.+.~.8 5 8 ~ E $.8 | G s & b ` 8.z.3.` t ` 6.l.c.0.D e ` 6.s.v.0.D e ` 6.a.c.0.D e B { 8.s.:.d & p 7 ! c W 9 9 r.Y +.#.N P ",
"c h +.g.*.~.P.5 5 8 8 8 Z ;.P L ' >.<.3.H.) e.e.e.e.e.L.) w.w.w.0.e.L.) e.e.e.0.e.K.) 0.4.2.2.,.Z.U L L < 8 7 O.(.^.^.$.9 / N P ",
"f f +.T.$.&.&.~.T.] 5 5 u q @ d d V C A ^ = ' ' ' D ' ) , J J ' ' D ) , J J J J J ) , D D S A C T @ d d < 8 U.~.r.r.*.$.~ +./ = ",
"N / / T.%.u.f.f.$.T.< % $ & s 2 2 3 3 3 e H t t t t t t J t t t t t t D t t t t t t J t e e 3 3 3 V 2 & & 8 J.$.*.$.r.&.E / / P ",
"/ / +.E.o.o.%.&.O.~ 5     A s &         0.D t         e.' t     o   e.D t         e.J e         >.V 2     7 D.$.$.$.*.$.Q / P = ",
"/ @./ ~.O.$.r.r.o.O.8     G s &         3.D t         e.J t         e.' t         e.' e         >.n 2     7 U.O.$.d.$.*.E = =   ",
"= = - (.-.$.r.&.$.&.5     G s &         3.H t         e.J t         e.' t         e.D t         ,.V 2     8 T.] ] *.O.o.~ 1     ",
"G.H.M.!.] o.! ~ %.o.7     G s 2         3.D t         e.' t         e.J t         e.J t         >.V 2     7 T.*...O.$...z / N   ",
"C.[ +.Y.! E &.( ..~ 7 F } A s 2 b ` 9.z.3.' t ` 8.l.b.w.J t ` 7.l.b.e.J t ` 7.l.b.e.J t F | q.z.>.V 2 j F 7 Y.O.X.d.E ! x +./ = ",
"=.+.+.U.~ ! &.W ..z 7 k Z ;.q K :.>.,.2.H._ 0.0.e.e.0.K._ e.e.e.e.e.L.) w.w.e.e.e.L.) 0.5.3.<.<.Z.T ' L K 7 S.X.~ %.x E x / +.q ",
"=.+.+.5 9 9 9 7 9 7 7 r u 0 @ s d V C C ^ , ' ' D ' ' / = ' J ' J J ) < J J J ' J ) , D D A A C T * d d s 8 7 7 7 < 7 8 8 +.+.1 ",
"=.+.[ R.T.!.Y.~.E.X.8 $ % $ s & 2 3 3 3 e D t t t t t t J t t t t t e ' t t t t t t J t e e 3 3 2 V 2 2 & w I.Q.Q.P.T.Q.E +.) > ",
"=.+.i.E.%.*.*.k.O...7     G s ;         4.D t         e.J t         w.D t         e.J t         >.V 2     8 T.*.r.%.&.r.~ N I $ ",
"=.u.+.E.&.X.o.$.$.o.7     A s &         4.D t         e.J t         e.' t         e.J t         >.V 2     9 J.] ] &.r.$.Q h P P ",
"+.u.+.U.%.%.%.&.X...7     A s &         4.D t         e.J t         e.' t         e.J t         >.V 2     7 E.%.&.&.&.&.] f P - ",
"+.+.+.Y.( $.%.] ~ O.7     G s &         4.D t         e.J t         e.J t         e.J t         >.V 2     7 ~.$.&.%.$.o.W c P P ",
"f +.+.W.X...~ ] *.&.7 B { Z a = b ` 7.z.3.D t ` 7.l.b.e.J t ` 7.z.b.e.J t ` 7.l.b.e.J t F | q.l.>.n 2 b F 5 Q.r.] ] $.] x ) f P ",
"g N @.Y.! E $.] &.%.7 n Z ;.q H ' :.,.<.H.^ 0.e.w.w.e.L.) e.0.e.e.e.L.) w.w.w.w.w.L.) 0.3.3.<.,.Z.T ' J J w J.] ] $.E o.Q +.N I ",
"N N @.J.! Y ..] &.c 7 r y 0 @ s d d V C ^ > D ' J J J ) < H J J D J ) , D J J J J ) , D D A A C T * d d s 5 V.] ] ] Y ] R +.+.f ",
"N / +.7 7 5 5 7 8 7 8 % $ $ u & & 2 3 3 3 D t t t t t t H t t t t t t J t t t t t t D t e e 3 3 3 n 2 & & 8 9 7 5 5 5 w 7 +.+.- ",
"/ +.+.U.U.~.R.E.P.~ 7     Z a &         2.S t         0.D t         0.J t         w.J t         >.k 2     9 U.E.R.R.R.T.Q +.) - ",
"/ N N T.O.r.r.*.$.! 8     Z a &         <.S t         e.J t         0.J t         0.H e         >.n &     9 P.] &.$.&.%.c +.f < ",
"= = 1 E.O.*.&.$.&.~ 7     Z u &         2.A t         0.D t         0.D t         0.D t         :.d 2     9 T.$.$.] &.u.c - - o ",
"G.B.[ T.%.$.O.&.%.O.7     Z u &         <.A e         0.D t         0.H e         0.H e         >.n &     7 T.&.%.f.%.&.Y / N = ",
"C.[ +.W.O.p.%.X.( X.6 m  .m u & j F 6.s.<.A e F 7.a.c.0.D t ` | a.c.0.D t F 1.l.c.0.D e B { 8.s.:.d 2 p M 5 Y.O.O.r.%...Y +./ = ",
"C.+.+.P.O.p.X.( &.O.7 l n -.9 G H K ' >.H.^ 3.0.0.5.5.L.) 0.4.0.5.5.L.) 0.5.5.5.0.K.) 3.3.<.,.>.Z.T L H H 7 J.%.X.X.O.( z +.+.P ",
"C.+.+.P.( ! &...o.( 7 : r w @ a s d n V ^ > A D D D D ) , D D S D D ) , D D ` S D ) , S S C V V T * d s a 7 Y.O.( O.c o.Y +.N = ",
"=.+.[ T.( Y ( W O.z < # % $ u $ ; 2 2 3 3 A e e e e 4 t D t t t e e t H t t t t e e H e e 4 3 3 3 d 2 ; $ 7 S.O.Q &.z W z +.N g ",
"=.+.u.w f w 7 7 7 < 7     m u &         >.A e o o o o 4.D 4 o   o   4.D 4 o o   o 3.D e       o ' d ;   o 7 7 7 7 9 8 5 9 +.+.h ",
"y.i.+.D.J.P.Y.I.U.O.8     Z u $   o o o >.A e X . . . 4.S t . X X X 3.D t . . X . 4.S e o o o o L d ; o o 8 I.F.F.F.J.D.8 +.P h ",
"1 N +.D.o.~ ] O...X.7 o o k y & o X X X >.C e O X + O 3.S t O O X O 4.A 4 O O O O 4.D e + X X X >.d ; X X 8 F.~ ! ( ( O.8 ) g t.",
"g N +.S.] Q ~ X.....8 X X k u = X O O O >.Z e + + + + 3.D r + + @ + 3.S e @ + + + 4.S t + + + + L d ; O X 7 J.( ! ( E o.w / y.t.",
"= +.+.A.W W W ~ ! E 9 b F k y & j B } i.>.C 3 F 1.q.x.3.D r ! | q.x.3.D e F | q.x.3.A 4 M ` 7.i.L d = j M 7 S.W ] ..! Y 5 P g h ",
"y.N +.k.c W z c E Y 8 a s -.9 Z G H L L G.^ <.3.3.3.3.L.) 3.3.3.3.3.L.) 3.3.3.3.3.L.) 2.,.,.:.' Z.T H G A w A.! ] ~ ( U 5 +.1 g ",
"f N +.k.9 c c z z c 7 : 4 w @ i a s d k T > C A S A A ) , A S S S A ) , A A S A S ) , A C C V n T - s s i 9 S.U Y Y Y p 5 +./ t.",
"N / / N.f 8 c 7 f v = # # % u $ = ; ; ; 3 V 4 4 e e e e S r t 4 r e e A e e e r 4 r G 4 3 : 3 ; ; d & & $ 8 N.p 5 9 9 z < +.P y.",
"/ / +.k.7 < 9 7 f 8 < * * l y $ 6 6 8 8 ' Z 4 f z z z 3.A e f z U z 2.A r z z z f 3.A 4 f f 9 9 L d ; 7 7 7 h.z 5 9 7 8 1 / $ g ",
"/ +./ 7 6 7 7 9 7 7 8 - = l y $ w 8 9 f ' V 3 c Y Y Y <.A 4 Y c Y Y 2.A 4 Y Y Y c 2.A 4 z z z z K l ; 8 w 5 7 8 5 9 5 7 > P 1 g ",
"= = = 9 8 7 7 9 9 8 7 < < l y = f f f x ' V 3 Q Q Q ! <.Z 4 Q Q Q Q 2.A 4 Q Q Q Q 2.A 4 R Y c c K s ; 9 9 9 7 5 5 7 5 7 7 $ 1   "
};
