/* XPM */
static char *minotaur_flip[] = {
/* columns rows colors chars-per-pixel */
"64 64 43 1 ",
"  c #9BACAA",
". c #A1A9A3",
"X c #89928C",
"o c #93968B",
"O c #7E9154",
"+ c #536265",
"@ c #4E595A",
"# c #405638",
"$ c black",
"% c #28221F",
"& c #383F40",
"* c #888D82",
"= c #869A9C",
"- c #62797E",
"; c #616257",
": c #5A7B48",
"> c #5B6F73",
", c #206134",
"< c #377B36",
"1 c #4E9129",
"2 c #65A117",
"3 c #7C9193",
"4 c #2F2F2E",
"5 c #983636",
"6 c #7E3030",
"7 c gray69",
"8 c white",
"9 c #804020",
"0 c #A06040",
"q c #6F4827",
"w c #443122",
"e c #50565D",
"r c #DAA935",
"t c #C0942D",
"y c #9299A4",
"u c #D4D4D7",
"i c #7E8590",
"p c #285DAA",
"a c #003C75",
"s c #005A97",
"d c #2D6AC5",
"f c #00749C",
"g c #255190",
/* pixels */
" .XooOOOOOOO+@#$$%%&%&&@**OO+@#% .XooOOOOOOO+@#$ ===---;;*OO+@#$",
"=:+++O::+++::+@%=***OO**:+++@+@%=:+++O::+++::+@%o:++++O-++++@+@%",
"-+++O:++++::+++&=:+++O::+++++@+&-+++O:++++::+++&:+++:O+++++++@+&",
"-++-++:+:::+++#%=+++O:+++++++++%-++-++:+:::+++#%O++--++++++++++%",
"-+:-+:+::+++++#&-++-++++++++++@%-+:-+:+::+++++#&O+O+++++++++++@%",
"-+O+++:++++++#+&-+:-+:++++++>#&%-+O+++:++++++#+&OO:+++++++++>#&%",
"-O+++:++++@+@++&-O:+:+:++++>##&&-O+++:++++@+@++&-O:+:+:++++>##&&",
";-++++++++#++++&*O::+:++++>>##&%;-++++++++#++++&*O::+:++++>>##&%",
";++++++++##++++&*O:+::+++>##@#&&;++++++++##++++&*O:+::+++>##@#&&",
"#+++++++>#@+@++&O:+++++@+#@++@#&#+++++++>#@+@++&O:+++++@+#@++@#&",
"##+++++>#@+@+++&:+++++@+@@++++#&##+++++>#@+@+++&:+++++@+@@++++#&",
"##++++>#@+@+@++&+++++@+@+++++++&##++++>#@+@+@++&+++++@+@+++++++&",
"#@+++>#@+@+++++%++++@+@++++++++%#@+++>#@+@+++++%++++@+@++++++++%",
"@++>###+++++++@%@+++++++++++++@%@++>###+++++++@%@+++++++++++++@%",
"@#####@++##@++#$@###++&++##@+,#<,1####@++##@++#%@###+++++##@++#$",
"$%%%&%&&&&&%&%$$%%%%&%,&<,&%&12,122<&%&&&&&%&%%$$%%%&%&&&&&%&%$$",
" o:OOOOOOOOO+@#%3*:OO:%2,%#--#&%,%,&---4444##@@$33---#&##@@@###$",
"=:+++O::+++::+@%3:++-:<112&::+@%&:+44445555444+%*:++++#&@++++@#%",
"=+++O:++++::+++&-++-:+#<1<,:+++&:44555556665554%:++-++@#++++@+@%",
"=++-++++:::+:+#%-+-++:+2<,#++4#%4555555566465664O+-++++#+++++@+%",
"-+:-+++:::+:++#&-++++++,#--+474455555566647456664-:+++@+#+++++@&",
"-+O+++++:+:++#+&#+++++++++-+4784564444464874666664+:+++@#++++++%",
"-O+++++:++++@++&&#@+@++++@++47844499999448746666664+++++#+@++++&",
";-+++++++++++++&#&##+@+@@+@+474990000009487466666664+++@@#+++++&",
";+++++++++++++@&#@++###@+++++49000000004887444666664+++@++@+++>&",
"#++++++++++++@@&@++++++#+++++40000900098887999466664@+@++++++>#&",
"##+++++++++@###&@+++++@+@++>4909090099098799994666644-+@+++>>@#&",
"##+++@++>>@#+@+&@+++++++++>@47909909774999994466666494++++>@@+@%",
"#@@+@+>>###+@+@%#+@+++++++>@487499488749999466666649994++++@+@@&",
"@@+@+@##@#+#+@@%#@+@+++++>@49449999444999994666666490094+++++@&%",
"@+@@@##+#+#+@+#%##@+@+++>#490000000999999946666664900004+++@&%%$",
"%%%%&%&&&&&%&%%$%%%%&%&&&&490000009999999466666664900004&&%%$%$$",
" .XooOOOOO444@#% o:OOOOOOO494444499999994666666664900004**OO+@#$",
"=:+++O::++4qw44444+++O::++444444449999946666666649900004:+++@+@%",
"-+++O:++++:44qeeee444:++++:4r444t49994466666666649900004+++++@+&",
"-++-++:+:::4yyyyyyeee4444:4r444t444446666666666649990094+++++++%",
"-+:-+:+::++4uuuuuuyyyeeee444rrt4666665666666666449999994++++++@%",
"-+O+++:+444uuuuuuuuuuyyyqqq44444655555666666664949900094++++>#&%",
"-O+++:+4uuuuuuuuuuuuuuuu44wqqqqq444555556664449949000004+++>##&&",
";-++++++4uuuuuuuuuuuuu44++44444wqqq444455649999994000004++>>##&%",
";+++++++48uuuuuuuuuuuu4+++40009444wqqqq44440999944000004+>##@#&&",
"#+++++++>488uuuuuuuuuuu4++499999444444wqqqq4444499000004+#@++@#&",
"##+++++>#@4488uuuuuu8884++499994O49099444wqqqqqq4900004+@@++++#&",
"##++++>#@+@+448888884444>>@4444&O490099904444wqq4990004@+++++++&",
"#@+++>#@+@++++444444@+>>###+@+@%+@4099999000944449000044+++++++%",
"@++>###++++++<<,,<+@+@##@#+#+@@%@+490444400994449900094w44++++@%",
"@#####@++##@++<2,<@@@##+1+#+@+#%#@+44iiiy4444yy499999444qq4@++#%",
"%%%%&%&&&&&%,12121<,&%,1212,1,%$%%4yiiiiyiiyy44444444%&%44&%&%%$",
" o:OOOOOOOOO+<%,11&----%1<%<&@@$ o444iiiy4444p49004OO:#%ass3-@#%",
"=:+++O::+++::+@1%<#<++O-####@+#%=44dd4444ppppp490004-:+:&f3::+@%",
"=+++O:++++::++<&+#<+:O++++++++#%4004dddddpppp4990004:+::&f*:+++&",
"=++-++++:::+:+#%o++--++++++++>#%4004pddddpppp44990004:++@f-+++#%",
"-+:-+++:::+:++#&o+O++++++++++##40004ppddppppp4g499004++++@-+++#,",
"-+O+++++:+:++#+&OO:+:+:+++++>##490094ppdpppp4gg499004+++++-++++<",
"1O+++++:++++@++&O:+:+:+++++>##@499994ppppppp444499994++++@++++&<",
"%#+++++++++++++&O:++:+++++>#@++&4449444444444++&44444@+@@+@++@,2",
",#++++++++++++@&O++::++++>#@+++&4444++++++++++@&44444##@++++@@12",
"%++++++++++++@@&O++:++++##@+@+#&#++++++++++++@@&@++++++#+++++&,<",
"1#+++++++++@###&O+::++@##@+@++#&##+++++++++@###&@+++++@+@++>++%,",
"&#+++@++>>@#+@+&O::+++++++@+++@%##+++@++>>@#+@+&@+++++++++>@@+@2",
"#@@+@+>>###+@+@%+:++++@++@+@+++&#@@+@+>>###+@+@%#+@+++++++>@++&1",
"@@+@+@##@#+#+@@%@++++#+++++++++%@@+@+@##@#+#+@@%#@+@+++++>@+@@%,",
"@+@@@##+#+#+@+#%#@+##++++++++@#%@+@@@##+#+#+@+#%##@+@+++>##@@&%,",
"%%%%&%&&&&&%&%%$$%&%&&&&&&&&%%%$%%%%&%&&&&&%&%%$%%%%&%&&&&&%&%%$"
};
