/* XPM */
static char *minotaur[] = {
/* columns rows colors chars-per-pixel */
"64 64 43 1 ",
"  c #9BACAA",
". c #A1A9A3",
"X c #89928C",
"o c #93968B",
"O c #7E9154",
"+ c #536265",
"@ c #4E595A",
"# c #405638",
"$ c black",
"% c #28221F",
"& c #383F40",
"* c #888D82",
"= c #869A9C",
"- c #62797E",
"; c #616257",
": c #5A7B48",
"> c #5B6F73",
", c #206134",
"< c #377B36",
"1 c #4E9129",
"2 c #65A117",
"3 c #7C9193",
"4 c #2F2F2E",
"5 c #983636",
"6 c #7E3030",
"7 c gray69",
"8 c white",
"9 c #804020",
"0 c #A06040",
"q c #003C75",
"w c #005A97",
"e c #00749C",
"r c #443122",
"t c #6F4827",
"y c #C0942D",
"u c #DAA935",
"i c #50565D",
"p c #9299A4",
"a c #D4D4D7",
"s c #7E8590",
"d c #285DAA",
"f c #2D6AC5",
"g c #255190",
/* pixels */
" .XooOOOOOOO+@#$$%%&%&&@**OO+@#% .XooOOOOOOO+@#$ ===---;;*OO+@#$",
"=:+++O::+++::+@%=***OO**:+++@+@%=:+++O::+++::+@%o:++++O-++++@+@%",
"-+++O:++++::+++&=:+++O::+++++@+&-+++O:++++::+++&:+++:O+++++++@+&",
"-++-++:+:::+++#%=+++O:+++++++++%-++-++:+:::+++#%O++--++++++++++%",
"-+:-+:+::+++++#&-++-++++++++++@%-+:-+:+::+++++#&O+O+++++++++++@%",
"-+O+++:++++++#+&-+:-+:++++++>#&%-+O+++:++++++#+&OO:+++++++++>#&%",
"-O+++:++++@+@++&-O:+:+:++++>##&&-O+++:++++@+@++&-O:+:+:++++>##&&",
";-++++++++#++++&*O::+:++++>>##&%;-++++++++#++++&*O::+:++++>>##&%",
";++++++++##++++&*O:+::+++>##@#&&;++++++++##++++&*O:+::+++>##@#&&",
"#+++++++>#@+@++&O:+++++@+#@++@#&#+++++++>#@+@++&O:+++++@+#@++@#&",
"##+++++>#@+@+++&:+++++@+@@++++#&##+++++>#@+@+++&:+++++@+@@++++#&",
"##++++>#@+@+@++&+++++@+@+++++++&##++++>#@+@+@++&+++++@+@+++++++&",
"#@+++>#@+@+++++%++++@+@++++++++%#@+++>#@+@+++++%++++@+@++++++++%",
"@++>###+++++++@%@+++++++++++++@%@++>###+++++++@%@+++++++++++++@%",
"@#####@++##@++#$@###++&++##@+,#<,1####@++##@++#%@###+++++##@++#$",
"$%%%&%&&&&&%&%$$%%%%&%,&<,&%&12,122<&%&&&&&%&%%$$%%%&%&&&&&%&%$$",
" o:OOOOOOOOO+@#%3*:OO4444%#--#&%,%,&---;;####@@$33---#&##@@@###$",
"=:+++O::+++::+@%3:44455554444+@%&:++++O-++##@@+%*:++++#&@++++@#%",
"=+++O:++++::+++&-45556665555544&:+++:O++++++@+@%:++-++@#++++@+@%",
"=++-++++:::+:+#%4665646655555554O+4--++++++++@@%O+-++++#+++++@+%",
"-+:-+++:::+:++#466654746665555554474++++++++@+@&O-:+++@+#+++++@&",
"-+O+++++:+:++#4666664784644444654874+++++++@+@#%::+:+++@#++++++%",
"-O+++++:++++@46666664784499999444874++++++++>##&#+:+++++#+@++++&",
";-++++++++++466666664784900000099474:+:+++++>#+%%::++++@@#+++++&",
";+++++++++++46666644478840000000094:::+++++>#@#%q&&@+++@++@+++>&",
"#+++++++++++46666499978889000900004::++++++>##+%wwee@+@++++++>#&",
"##+++++++++4466664999978909900909094+:+++++@#+#&w 3---+@+++>>@#&",
"##+++@++>>49466666449999947790990974:+++++@#+#+%3::+++++++>@@+@%",
"#@@+@+>>#499946666664999947884994784++@+++#+@2@,-:+++++++++@+@@&",
"@@+@+@##49009466666649999944499994494#+++@#@+2<2@,+++++++++++@&%",
"@+@@@##+400009466666649999999000000094++@@#+@@1,2%+##2+++++@&%%$",
"%%%%&%&&400009466666664999999900000094&&&&&%,1,12,1<1,<%&&%%$%$$",
" .XooOOO400009466666666499999994444494-**O:+1#%%<1%444&@**OO+@#$",
"=:+++O::400009946666666649999944444444OOO:++++44444rt4**:+++@+@%",
"-+++O:++40000994666666666449994y444u4::::++444iiiit44O::+++++@+&",
"-++-++:+490099946666666666644444y444u4+4444iiipppppp4:+++++++++%",
"-+:-+:+:4999999446666666665666664yuu444iiiipppaaaaaa4+++++++++@%",
"-+O+++:+49000994946666666655555644444tttpppaaaaaaaaaa444++++>#&%",
"-O+++:++400000949944466655555444tttttr44aaaaaaaaaaaaaaaa4++>##&&",
";-++++++400000499999946554444tttr44444++44aaaaaaaaaaaaa4++>>##&%",
";+++++++40000044999904444ttttr44490004+++4aaaaaaaaaaaa84+>##@#&&",
"#+++++++4000009944444ttttr444444999994++4aaaaaaaaaaa884@+#@++@#&",
"##+++++>#4000094ttttttr44499094&499994+>4888aaaaaa8844@+@@++++#&",
"##++++>#@4000994ttr444409990094&O4444+>>444488888844+@+@+++++++&",
"#@+++>#@4400009444490009999904@%+@+++>##@+++444444++@+@++++++++%",
"@++>##44r490009944499004444094@%@+@++####@+++++%@+++++++++++++@%",
"@####4tt444999994pp4444psss44+#%#@++@&&&&##++@#%@###+++++##@++#%",
"%%%%&%44&&&44444444ppsspssssp4%$%%&%%%&%&&&&%%%$%%%%&%&%%%&%&%%$",
" o:OOOOOOOOO+40094d4444psss444@$ o:OOOOOOOOO+@#%3*:OO:#%qww3-@#%",
"=:+++O::+++:400094ddddd4444ff44%=:+++O::+++::+@%3:++-:+:&e3::+@%",
"=+++O:++++::4000994ddddfffff4004=+++O:++++::+++&-++-:+::&e*:+++&",
"=++-++++:::40009944ddddffffd4004=++-++++:::+:+#%-+-++:++@e-+++#%",
"-+:-+++:::+400994g4dddddffdd40004+:-+++:::+:++#&-++++++++@-+++#,",
"-+O+++++:+:400994gg4ddddfdd490094+O+++++:+:++#+&#+++++++++-++++<",
"1O+++++:+++499994444ddddddd499994O+++++:++++@++&&#@+@++++@++++&<",
"%#+++++++++44444O:+4444444449444;-+++++++++++++&#&##+@+@@+@++@,2",
",#+++++++++44444O++::++++>#@4444;+++++++++++++@&#@++###@++++@@12",
"%++++++++++++@@&O++:++++##@+@+#&#++++++++++++@@&@++++++#+++++&,<",
"1#+++++++++@###&O+::++@##@+@++#&##+++++++++@###&@+++++@+@++>++%,",
"&#+++@++>>@#+@+&O::+++++++@+++@%##+++@++>>@#+@+&@+++++++++>@@+@2",
"#@@+@+>>###+@+@%+:++++@++@+@+++&#@@+@+>>###+@+@%#+@+++++++>@++&1",
"@@+@+@##@#+#+@@%@++++#+++++++++%@@+@+@##@#+#+@@%#@+@+++++>@+@@%,",
"@+@@@##+#+#+@+#%#@+##++++++++@#%@+@@@##+#+#+@+#%##@+@+++>##@@&%,",
"%%%%&%&&&&&%&%%$$%&%&&&&&&&&%%%$%%%%&%&&&&&%&%%$%%%%&%&&&&&%&%%$"
};
