/* XPM */
static char *wall[] = {
/* columns rows colors chars-per-pixel */
"64 64 39 1 ",
"  c #2A2E31",
". c #A1A9A3",
"X c #89928C",
"o c #93968B",
"O c #7E9154",
"+ c #3B454A",
"@ c #536265",
"# c #4E595A",
"$ c #28221F",
"% c #383F40",
"& c #888D82",
"* c #869A9C",
"= c #62797E",
"- c #191716",
"; c #5A7B48",
": c #495960",
"> c #405638",
", c #616257",
"< c #34393C",
"1 c #5B6F73",
"2 c black",
"3 c #377B36",
"4 c #206134",
"5 c #4E9129",
"6 c #65A117",
"7 c #9BACAA",
"8 c #7C9193",
"9 c #5C625E",
"0 c #8C948F",
"q c #855A00",
"w c #9F7315",
"e c #7D8376",
"r c #9FA7A1",
"t c #141413",
"y c #503C42",
"u c #584415",
"i c #B08A2E",
"p c #151515",
"a c #00749C",
/* pixels */
" .XooO + OOO@# + $$%$% + &OO@# + .XooO + OOO@# + ***== + &OO@# +",
"-;@@@O+ -@@;;@+ -&&&OO+ -@@@#@+ -;@@@O+ -@@;;@+ -;@@@@+ -@@@#@+ ",
" :@@O: - :;;@: - :@@@: - :@@@: - :@@O: - :;;@: - :@@;: - :@@@: -",
"- :=: -@- :@: -$- :@: -@- :@: -$- :=: -@- :@: -$- :=: -@- :@: -$",
"=- : -@;;- : ->%=- : -@@@- : -#$=- : -@;;- : ->%O- : -@@@- : -#$",
"=@ + @;@@@ + >@%=@ + ;@@@@ + >%$=@ + @;@@@ + >@%OO + @@@@@ + >%$",
"=O+ -;@@@@+ -@@%=O+ -@;@@@+ ->%%=O+ -;@@@@+ -@@%=O+ -@;@@@+ ->%%",
",: - :@@@: - :@%&: - :@@@: - :%$,: - :@@@: - :@%&: - :@@@: - :%$",
": -@- :@: -@- :%: -@- :@: ->- :%: -@- :@: -@- :%: -@- :@: ->- :%",
" -@@@- : -#@#- : -@@@- : -#@@- : -@@@- : -#@#- : -@@@- : -#@@- :",
" >@@@@ + #@#@@ + @@@@@ + #@@@@ + >@@@@ + #@#@@ + @@@@@ + #@@@@ +",
"->@@@@+ -@#@#@+ -@@@@#+ -@@@@@+ ->@@@@+ -@#@#@+ -@@@@#+ -@@@@@+ ",
" :@@@: - :@@@: - :@@#: - :@@@: - :@@@: # :@@@: - :@@#< - :@@@: -",
"- :1: -@- :@: -$- :@: -@- :@: -$- :1: -@- :@: -$- :@: -@- :@: -$",
"#- : -#@@- : ->2#- : -%@@- : ->34- : -#@@- : ->$#- : -@@@- : ->2",
"2$ + $%%%% + $22$$ + $4%34 + 56456 + $%%%% + $$22$ + $%%%% + $22",
"7o+ -OOOOO+ -#>$8&+ -;$64$+ ->%$4$+ -==,,>+ -##288+ ->%>>#+ ->>2",
"*: - :;;@: - :#$8: - :355: - :#$%: - :O=@: - :@$&: - :>%#: - :>$",
": -@- :@: -90000000000000000000000009:@qwwwwwwwwwwwwq :>: -@- :$",
" -@=@- : -;0:0000000000000000000e00:0 :wwwwwwwwwwwwww- : -@@@- :",
" @;=@@ + ;@0e000000000000000000r:00e0 +wwwwwwwwwwwwww@ + @@@@@ +",
"-@O@@@+ -@;0e0%%t%t0t%0tt%0000rye00e0+ wwwwwwtttwwwww@+ -@@@@@+ ",
" :@@@: - :@0000000000000000000:ee00e0 @wwwwwuttwwwwww: - :#@@: -",
"- :@: -@- :000t%0%%t%0000000000e00000-;wi:wwttwwwwwww -#- :@: -%",
",- : -@@@- 00000000000000000000ee00e0;@wyqwuttttuwwww-@#@- : -1%",
">@ + @@@@@ 00000000000000000000e00000@@wqqwwwwutwwwww@#@@@ + 1>%",
">>+ -@@@@@+000000000000000000000e0000;@wqwwwwwtwwwwww=@#@@+ -#>%",
">: - :@@1: 000tt%t0t00000000000e00000@@wwqwwwtttwwwww:@@@: - :#$",
": -@- :1: -00000000000000000000000000:#wqwwwwwtwwwwww :@: -#- :%",
" -@#@- : -@000t0%00000000000000e00000 :wwwwwwwwwwwwww- : -@@@- :",
" @###> + @>0:0000000000000000000000:0 +wqwwwwwwwwwwww6 + @@#%$ +",
"-$$$%$+ -%%90000000000000000000000009+ qwwwwwwwwwwwwq4+ -%$$2$+ ",
" :Xoo: - :OO@<-p-<;OO<-p-<OO@<-p-<**=< --<;@5<-p-<$34: - :OO@: -",
"- :@: -;- :;: -$- :@: -;- :;: -=- :@: -O- :@: -2- :&: -&- :@: -$",
"=- : -@@@- : -@%*- : -@@@- : -@%$- : -;;;- : ->3@- : -;;@- : -@%",
"=@ + @;@;; + @>$*@ + @@@;; + @>$%& + =@;@@ + @>5>@ + ;@@@@ + @@$",
"=@+ -;@;;@+ -@>%=@+ -@@;;;+ -@>%$O+ -@;@;@+ -@63>@+ -@@@@@+ -@#$",
"=: - :;@@: - :@%=: - :@@;: - :@%%: - :@;;: - :@4>: - :@@@: - :%$",
": -@- :@: -@- :%: -@- :;: -@- :%: -@- :@: -@- :%: -@- :@: -1- :%",
" -@@@- : ->@@- : -@@@- : -@@@- : -;@@- : -@#@- : -;;@- : -11>- :",
" @@@@@ + >>@@@ + @@@@@ + @@@@@ + ;@@@@ + @#@@@ + O;@;; + 1>>#> +",
"-@@@@@+ ->#@#@+ -@@@@@+ -@@@@#+ -@@@@@+ ->#@@@+ -;@@@@+ ->#@@#+ ",
" :@@@: - :@#@: - :@@@: - :@#>: - :@@@: - :@@@: - :@@@: - :@@@: -",
"- :@: ->- :@: -3- :@: -@- :>: -%- :@: -1- :@: -$- :@: -#- :@: -%",
">- : ->#@- : -65%- : -11>- : -#$@- : ->>#- : -@%@- : -#@@- : -@$",
"#@ + >>@@@ + 33443 + #>>#> + ##$#@ + >>>># + @@$#@ + @@@@@ + @#$",
"#>+ ->#@@>+ -@3643+ ->>@5@+ -@>$>#+ -%%%%>+ -#>$#>+ -@@@@>+ -@>$",
"$: - :%%%: - :656: - :456: - :$2$: - :%$%: - :$2$: - :%$$: - :$2",
": -O- :O: -O- :4: -=- :$: -3- :2: -O- :O: -O- :$: -O- :$: -8- :$",
" -@@@- : -@;;- : ->3@- : ->>#- : -@@@- : -@;;- : -@@=- : -8;;- :",
" @@@O; + @;;@@ + >3@;O + @@@@@ + @@@O; + @;;@@ + @@=;@ + a&;@@ +",
"-@@=@@+ -;;@;@+ -@@==@+ -@@@@1+ -@@=@@+ -;;@;@+ -@=@@;+ -a=@@@+ ",
" :;=@: - :@;@: - :O@@: - :@@@: - :;=@: - :@;@: - :@@@: - :=@@: -",
"- :@: -@- :@: -%- :@: -@- :@: -$- :@: -@- :@: -%- :@: -@- :@: -3",
"5- : -@;@- : -@%O- : -@@@- : -#%=- : -@;@- : -@%%- : -@@@- : -%3",
"$> + @@@@@ + @@%O; + @@@@@ + @@%,= + @@@@@ + @@%>% + #@##@ + #46",
"4>+ -@@@@@+ -@#%O@+ -@@@@1+ -@@%,@+ -@@@@@+ -@#%>#+ ->>#@@+ -#56",
"$: - :@@@: - :#%O: - :@@>: - :>%>: - :@@@: - :#%#: - :@>@: - :43",
": -@- :@: -#- :%: -;- :>: -#- :%: -@- :@: -#- :%: -@- :@: -1- :4",
" -@@@- : -#>@- : -;@@- : -#@@- : -@@@- : -#>@- : -@@@- : -1##- :",
" ##@#@ + >>@#@ + ;@@@@ + #@#@@ + ##@#@ + >>@#@ + @#@@@ + @1#@@ +",
"-#@#@#+ ->@>@#+ -@@@@>+ -@@@@@+ -#@#@#+ ->@>@#+ -#@#@@+ -1#@##+ ",
" :###: - :>@#: - :@>>: - :@@@: - :###: - :>@#: - :#@#: - :>##: -",
"- :$: -%- :$: -2- :$: -%- :%: -2- :$: -%- :$: -2- :$: -%- :$: -2"
};
